{
    "asset" : {
        "generator" : "Khronos glTF Blender I/O v3.3.27",
        "version" : "2.0"
    },
    "scene" : 0,
    "scenes" : [
        {
            "name" : "Scene",
            "nodes" : [
                0
            ]
        }
    ],
    "nodes" : [
        {
            "mesh" : 0,
            "name" : "Text"
        }
    ],
    "meshes" : [
        {
            "name" : "Text",
            "primitives" : [
                {
                    "attributes" : {
                        "POSITION" : 0,
                        "NORMAL" : 1,
                        "TEXCOORD_0" : 2
                    },
                    "indices" : 3
                }
            ]
        }
    ],
    "accessors" : [
        {
            "bufferView" : 0,
            "componentType" : 5126,
            "count" : 11362,
            "max" : [
                5.367404460906982,
                0.07999999821186066,
                0.010888654738664627
            ],
            "min" : [
                0.0533895343542099,
                -0.07999999821186066,
                -0.5149280428886414
            ],
            "type" : "VEC3"
        },
        {
            "bufferView" : 1,
            "componentType" : 5126,
            "count" : 11362,
            "type" : "VEC3"
        },
        {
            "bufferView" : 2,
            "componentType" : 5126,
            "count" : 11362,
            "type" : "VEC2"
        },
        {
            "bufferView" : 3,
            "componentType" : 5123,
            "count" : 20280,
            "type" : "SCALAR"
        }
    ],
    "bufferViews" : [
        {
            "buffer" : 0,
            "byteLength" : 136344,
            "byteOffset" : 0,
            "target" : 34962
        },
        {
            "buffer" : 0,
            "byteLength" : 136344,
            "byteOffset" : 136344,
            "target" : 34962
        },
        {
            "buffer" : 0,
            "byteLength" : 90896,
            "byteOffset" : 272688,
            "target" : 34962
        },
        {
            "buffer" : 0,
            "byteLength" : 40560,
            "byteOffset" : 363584,
            "target" : 34963
        }
    ],
    "buffers" : [
        {
            "byteLength" : 404144,
            "uri" : "data:application/octet-stream;base64,"
        }
    ]
}
